<?xml version="1.0" encoding="UTF-8" standalone="no"?>
<svg
   id="visual"
   viewBox="0 0 1680 540"
   width="100%"
   height="400"
   preserveAspectRatio="none"
   version="1.1"
   sodipodi:docname="ligh-waves.svg"
   inkscape:version="1.4.2 (f4327f4, 2025-05-13)"
   xmlns:inkscape="http://www.inkscape.org/namespaces/inkscape"
   xmlns:sodipodi="http://sodipodi.sourceforge.net/DTD/sodipodi-0.dtd"
   xmlns="http://www.w3.org/2000/svg"
   xmlns:svg="http://www.w3.org/2000/svg">
  <defs
     id="defs10" />
  <sodipodi:namedview
     id="namedview10"
     pagecolor="#ffffff"
     bordercolor="#000000"
     borderopacity="0.25"
     inkscape:showpageshadow="2"
     inkscape:pageopacity="0.0"
     inkscape:pagecheckerboard="0"
     inkscape:deskcolor="#d1d1d1"
     inkscape:zoom="1.0845238"
     inkscape:cx="839.53897"
     inkscape:cy="199.62678"
     inkscape:window-width="2752"
     inkscape:window-height="1081"
     inkscape:window-x="1912"
     inkscape:window-y="-8"
     inkscape:window-maximized="1"
     inkscape:current-layer="visual" />
  <rect
     x="0"
     y="0"
     width="1680"
     height="540"
     fill="#08071e"
     id="rect1" />
  <path
     d="M0 137L40 152.7C80 168.3 160 199.7 240 220.7C320 241.7 400 252.3 480 273.5C560 294.7 640 326.3 720 313.5C800 300.7 880 243.3 960 211.3C1040 179.3 1120 172.7 1200 196.5C1280 220.3 1360 274.7 1440 297.7C1520 320.7 1600 312.3 1640 308.2L1680 304L1680 541L1640 541C1600 541 1520 541 1440 541C1360 541 1280 541 1200 541C1120 541 1040 541 960 541C880 541 800 541 720 541C640 541 560 541 480 541C400 541 320 541 240 541C160 541 80 541 40 541L0 541Z"
     fill="#901948"
     id="path1"
     style="fill:#73143a;fill-opacity:1" />
  <path
     d="M0 168L40 167.8C80 167.7 160 167.3 240 179C320 190.7 400 214.3 480 216.3C560 218.3 640 198.7 720 216.2C800 233.7 880 288.3 960 306.7C1040 325 1120 307 1200 315.5C1280 324 1360 359 1440 356.3C1520 353.7 1600 313.3 1640 293.2L1680 273L1680 541L1640 541C1600 541 1520 541 1440 541C1360 541 1280 541 1200 541C1120 541 1040 541 960 541C880 541 800 541 720 541C640 541 560 541 480 541C400 541 320 541 240 541C160 541 80 541 40 541L0 541Z"
     fill="#80194a"
     id="path2" />
  <path
     d="M0 196L40 209.5C80 223 160 250 240 264.5C320 279 400 281 480 297.5C560 314 640 345 720 328.8C800 312.7 880 249.3 960 258C1040 266.7 1120 347.3 1200 380.8C1280 414.3 1360 400.7 1440 382C1520 363.3 1600 339.7 1640 327.8L1680 316L1680 541L1640 541C1600 541 1520 541 1440 541C1360 541 1280 541 1200 541C1120 541 1040 541 960 541C880 541 800 541 720 541C640 541 560 541 480 541C400 541 320 541 240 541C160 541 80 541 40 541L0 541Z"
     fill="#701a4a"
     id="path3"
     style="fill:#920f51;fill-opacity:1" />
  <path
     d="M0 367L40 357.7C80 348.3 160 329.7 240 328.2C320 326.7 400 342.3 480 343C560 343.7 640 329.3 720 314.8C800 300.3 880 285.7 960 301.2C1040 316.7 1120 362.3 1200 365.5C1280 368.7 1360 329.3 1440 305.8C1520 282.3 1600 274.7 1640 270.8L1680 267L1680 541L1640 541C1600 541 1520 541 1440 541C1360 541 1280 541 1200 541C1120 541 1040 541 960 541C880 541 800 541 720 541C640 541 560 541 480 541C400 541 320 541 240 541C160 541 80 541 40 541L0 541Z"
     fill="#601b48"
     id="path4"
     style="fill:#a31656;fill-opacity:1" />
  <path
     d="M0 361L40 369.8C80 378.7 160 396.3 240 401.7C320 407 400 400 480 395.7C560 391.3 640 389.7 720 383.2C800 376.7 880 365.3 960 354.8C1040 344.3 1120 334.7 1200 332.7C1280 330.7 1360 336.3 1440 338C1520 339.7 1600 337.3 1640 336.2L1680 335L1680 541L1640 541C1600 541 1520 541 1440 541C1360 541 1280 541 1200 541C1120 541 1040 541 960 541C880 541 800 541 720 541C640 541 560 541 480 541C400 541 320 541 240 541C160 541 80 541 40 541L0 541Z"
     fill="#501b44"
     id="path5"
     style="fill:#3f1a4d;fill-opacity:1" />
  <path
     d="M0 301L40 325.5C80 350 160 399 240 417.5C320 436 400 424 480 400.5C560 377 640 342 720 331.5C800 321 880 335 960 336.5C1040 338 1120 327 1200 347.8C1280 368.7 1360 421.3 1440 419C1520 416.7 1600 359.3 1640 330.7L1680 302L1680 541L1640 541C1600 541 1520 541 1440 541C1360 541 1280 541 1200 541C1120 541 1040 541 960 541C880 541 800 541 720 541C640 541 560 541 480 541C400 541 320 541 240 541C160 541 80 541 40 541L0 541Z"
     fill="#401a3f"
     id="path6"
     style="fill:#8c43a3;fill-opacity:1" />
  <path
     d="M0 459L40 462.5C80 466 160 473 240 467.2C320 461.3 400 442.7 480 429.3C560 416 640 408 720 412.8C800 417.7 880 435.3 960 426.7C1040 418 1120 383 1200 380C1280 377 1360 406 1440 412.5C1520 419 1600 403 1640 395L1680 387L1680 541L1640 541C1600 541 1520 541 1440 541C1360 541 1280 541 1200 541C1120 541 1040 541 960 541C880 541 800 541 720 541C640 541 560 541 480 541C400 541 320 541 240 541C160 541 80 541 40 541L0 541Z"
     fill="#321939"
     id="path7"
     style="fill:#b093d6;fill-opacity:1" />
  <path
     d="M0 469L40 455.7C80 442.3 160 415.7 240 401.2C320 386.7 400 384.3 480 403.2C560 422 640 462 720 477.5C800 493 880 484 960 480C1040 476 1120 477 1200 477.7C1280 478.3 1360 478.7 1440 473.7C1520 468.7 1600 458.3 1640 453.2L1680 448L1680 541L1640 541C1600 541 1520 541 1440 541C1360 541 1280 541 1200 541C1120 541 1040 541 960 541C880 541 800 541 720 541C640 541 560 541 480 541C400 541 320 541 240 541C160 541 80 541 40 541L0 541Z"
     fill="#251631"
     id="path8"
     style="fill:#ccbce1;fill-opacity:1" />
  <path
     d="M0 471L40 473.3C80 475.7 160 480.3 240 487.3C320 494.3 400 503.7 480 503.2C560 502.7 640 492.3 720 488.3C800 484.3 880 486.7 960 479.7C1040 472.7 1120 456.3 1200 447.3C1280 438.3 1360 436.7 1440 438C1520 439.3 1600 443.7 1640 445.8L1680 448L1680 541L1640 541C1600 541 1520 541 1440 541C1360 541 1280 541 1200 541C1120 541 1040 541 960 541C880 541 800 541 720 541C640 541 560 541 480 541C400 541 320 541 240 541C160 541 80 541 40 541L0 541Z"
     fill="#1a1228"
     id="path9"
     style="fill:#e4d9f8;fill-opacity:1" />
  <path
     d="M0 489L40 484.3C80 479.7 160 470.3 240 471.3C320 472.3 400 483.7 480 487.5C560 491.3 640 487.7 720 489.7C800 491.7 880 499.3 960 499.5C1040 499.7 1120 492.3 1200 493.3C1280 494.3 1360 503.7 1440 509.8C1520 516 1600 519 1640 520.5L1680 522L1680 541L1640 541C1600 541 1520 541 1440 541C1360 541 1280 541 1200 541C1120 541 1040 541 960 541C880 541 800 541 720 541C640 541 560 541 480 541C400 541 320 541 240 541C160 541 80 541 40 541L0 541Z"
     fill="#110c1e"
     id="path10"
     style="fill:#e3e1e8;fill-opacity:1" />
</svg>
