<?xml version="1.0" encoding="UTF-8" standalone="no"?>
<svg
   id="visual"
   viewBox="0 0 1680 486"
   width="1680"
   height="360"
   preserveAspectRatio="none"
   version="1.1"
   sodipodi:docname="dark-waves.svg"
   inkscape:version="1.4.2 (f4327f4, 2025-05-13)"
   xmlns:inkscape="http://www.inkscape.org/namespaces/inkscape"
   xmlns:sodipodi="http://sodipodi.sourceforge.net/DTD/sodipodi-0.dtd"
   xmlns="http://www.w3.org/2000/svg"
   xmlns:svg="http://www.w3.org/2000/svg">
  <defs
     id="defs10" />
  <sodipodi:namedview
     id="namedview10"
     pagecolor="#ffffff"
     bordercolor="#000000"
     borderopacity="0.25"
     inkscape:showpageshadow="2"
     inkscape:pageopacity="0.0"
     inkscape:pagecheckerboard="0"
     inkscape:deskcolor="#d1d1d1"
     inkscape:zoom="1.0845238"
     inkscape:cx="320.41712"
     inkscape:cy="181.18551"
     inkscape:window-width="1920"
     inkscape:window-height="1129"
     inkscape:window-x="-8"
     inkscape:window-y="-8"
     inkscape:window-maximized="1"
     inkscape:current-layer="visual" />
  <rect
     x="0"
     y="9.0122221e-06"
     width="1680"
     height="486"
     fill="#08071e"
     id="rect1"
     style="stroke-width:0.948683" />
  <path
     d="m 0,83 40,15.7 c 40,15.6 120,47 200,68 80,21 160,31.6 240,52.8 80,21.2 160,52.8 240,40 80,-12.8 160,-70.2 240,-102.2 80,-32 160,-38.6 240,-14.8 80,23.8 160,78.2 240,101.2 80,23 160,14.6 200,10.5 l 40,-4.2 v 237 h -40 c -40,0 -120,0 -200,0 -80,0 -160,0 -240,0 -80,0 -160,0 -240,0 -80,0 -160,0 -240,0 -80,0 -160,0 -240,0 -80,0 -160,0 -240,0 -80,0 -160,0 -200,0 H 0 Z"
     fill="#901948"
     id="path1" />
  <path
     d="m 0,114 40,-0.2 c 40,-0.1 120,-0.5 200,11.2 80,11.7 160,35.3 240,37.3 80,2 160,-17.6 240,-0.1 80,17.5 160,72.1 240,90.5 80,18.3 160,0.3 240,8.8 80,8.5 160,43.5 240,40.8 80,-2.6 160,-43 200,-63.1 l 40,-20.2 v 268 h -40 c -40,0 -120,0 -200,0 -80,0 -160,0 -240,0 -80,0 -160,0 -240,0 -80,0 -160,0 -240,0 -80,0 -160,0 -240,0 -80,0 -160,0 -240,0 -80,0 -160,0 -200,0 H 0 Z"
     fill="#80194a"
     id="path2" />
  <path
     d="m 0,142 40,13.5 c 40,13.5 120,40.5 200,55 80,14.5 160,16.5 240,33 80,16.5 160,47.5 240,31.3 80,-16.1 160,-79.5 240,-70.8 80,8.7 160,89.3 240,122.8 80,33.5 160,19.9 240,1.2 80,-18.7 160,-42.3 200,-54.2 l 40,-11.8 v 225 h -40 c -40,0 -120,0 -200,0 -80,0 -160,0 -240,0 -80,0 -160,0 -240,0 -80,0 -160,0 -240,0 -80,0 -160,0 -240,0 -80,0 -160,0 -240,0 -80,0 -160,0 -200,0 H 0 Z"
     fill="#701a4a"
     id="path3" />
  <path
     d="m 0,313 40,-9.3 c 40,-9.4 120,-28 200,-29.5 80,-1.5 160,14.1 240,14.8 80,0.7 160,-13.7 240,-28.2 80,-14.5 160,-29.1 240,-13.6 80,15.5 160,61.1 240,64.3 80,3.2 160,-36.2 240,-59.7 80,-23.5 160,-31.1 200,-35 l 40,-3.8 v 274 h -40 c -40,0 -120,0 -200,0 -80,0 -160,0 -240,0 -80,0 -160,0 -240,0 -80,0 -160,0 -240,0 -80,0 -160,0 -240,0 -80,0 -160,0 -240,0 -80,0 -160,0 -200,0 H 0 Z"
     fill="#601b48"
     id="path4" />
  <path
     d="m 0,307 40,8.8 c 40,8.9 120,26.5 200,31.9 80,5.3 160,-1.7 240,-6 80,-4.4 160,-6 240,-12.5 80,-6.5 160,-17.9 240,-28.4 80,-10.5 160,-20.1 240,-22.1 80,-2 160,3.6 240,5.3 80,1.7 160,-0.7 200,-1.8 l 40,-1.2 v 206 h -40 c -40,0 -120,0 -200,0 -80,0 -160,0 -240,0 -80,0 -160,0 -240,0 -80,0 -160,0 -240,0 -80,0 -160,0 -240,0 -80,0 -160,0 -240,0 -80,0 -160,0 -200,0 H 0 Z"
     fill="#501b44"
     id="path5" />
  <path
     d="m 0,247 40,24.5 c 40,24.5 120,73.5 200,92 80,18.5 160,6.5 240,-17 80,-23.5 160,-58.5 240,-69 80,-10.5 160,3.5 240,5 80,1.5 160,-9.5 240,11.3 80,20.9 160,73.5 240,71.2 80,-2.3 160,-59.7 200,-88.3 l 40,-28.7 v 239 h -40 c -40,0 -120,0 -200,0 -80,0 -160,0 -240,0 -80,0 -160,0 -240,0 -80,0 -160,0 -240,0 -80,0 -160,0 -240,0 -80,0 -160,0 -240,0 -80,0 -160,0 -200,0 H 0 Z"
     fill="#401a3f"
     id="path6" />
  <path
     d="m 0,405 40,3.5 c 40,3.5 120,10.5 200,4.7 80,-5.9 160,-24.5 240,-37.9 80,-13.3 160,-21.3 240,-16.5 80,4.9 160,22.5 240,13.9 80,-8.7 160,-43.7 240,-46.7 80,-3 160,26 240,32.5 80,6.5 160,-9.5 200,-17.5 l 40,-8 v 154 h -40 c -40,0 -120,0 -200,0 -80,0 -160,0 -240,0 -80,0 -160,0 -240,0 -80,0 -160,0 -240,0 -80,0 -160,0 -240,0 -80,0 -160,0 -240,0 -80,0 -160,0 -200,0 H 0 Z"
     fill="#321939"
     id="path7" />
  <path
     d="m 0,415 40,-13.3 c 40,-13.4 120,-40 200,-54.5 80,-14.5 160,-16.9 240,2 80,18.8 160,58.8 240,74.3 80,15.5 160,6.5 240,2.5 80,-4 160,-3 240,-2.3 80,0.6 160,1 240,-4 80,-5 160,-15.4 200,-20.5 l 40,-5.2 v 93 h -40 c -40,0 -120,0 -200,0 -80,0 -160,0 -240,0 -80,0 -160,0 -240,0 -80,0 -160,0 -240,0 -80,0 -160,0 -240,0 -80,0 -160,0 -240,0 -80,0 -160,0 -200,0 H 0 Z"
     fill="#251631"
     id="path8" />
  <path
     d="m 0,417 40,2.3 c 40,2.4 120,7 200,14 80,7 160,16.4 240,15.9 80,-0.5 160,-10.9 240,-14.9 80,-4 160,-1.6 240,-8.6 80,-7 160,-23.4 240,-32.4 80,-9 160,-10.6 240,-9.3 80,1.3 160,5.7 200,7.8 l 40,2.2 v 93 h -40 c -40,0 -120,0 -200,0 -80,0 -160,0 -240,0 -80,0 -160,0 -240,0 -80,0 -160,0 -240,0 -80,0 -160,0 -240,0 -80,0 -160,0 -240,0 -80,0 -160,0 -200,0 H 0 Z"
     fill="#1a1228"
     id="path9" />
  <path
     d="m 0,435 40,-4.7 c 40,-4.6 120,-14 200,-13 80,1 160,12.4 240,16.2 80,3.8 160,0.2 240,2.2 80,2 160,9.6 240,9.8 80,0.2 160,-7.2 240,-6.2 80,1 160,10.4 240,16.5 80,6.2 160,9.2 200,10.7 l 40,1.5 v 19 h -40 c -40,0 -120,0 -200,0 -80,0 -160,0 -240,0 -80,0 -160,0 -240,0 -80,0 -160,0 -240,0 -80,0 -160,0 -240,0 -80,0 -160,0 -240,0 -80,0 -160,0 -200,0 H 0 Z"
     fill="#110c1e"
     id="path10" />
</svg>
